<?xml version="1.0" encoding="UTF-8"?>
<svg xmlns="http://www.w3.org/2000/svg" xmlns:xlink="http://www.w3.org/1999/xlink" width="20px" height="29px" viewBox="0 0 20 28" version="1.1">
<g id="surface1">
<path style=" stroke:none;fill-rule:nonzero;fill:rgb(10.196078%,73.72549%,99.607843%);fill-opacity:1;" d="M 9.539062 14.003906 C 9.539062 11.4375 11.671875 9.339844 14.3125 9.339844 C 16.941406 9.339844 19.085938 11.421875 19.085938 14.003906 C 19.085938 16.574219 16.953125 18.667969 14.3125 18.667969 C 11.683594 18.667969 9.539062 16.578125 9.539062 14.003906 Z M 9.539062 14.003906 "/>
<path style=" stroke:none;fill-rule:nonzero;fill:rgb(3.921569%,81.176471%,51.372549%);fill-opacity:1;" d="M 0.0078125 23.324219 C 0.0078125 20.753906 2.140625 18.65625 4.78125 18.65625 L 9.554688 18.65625 L 9.554688 23.324219 C 9.554688 25.890625 7.421875 27.988281 4.78125 27.988281 C 2.140625 27.988281 0.0078125 25.902344 0.0078125 23.324219 Z M 0.0078125 23.324219 "/>
<path style=" stroke:none;fill-rule:nonzero;fill:rgb(100%,44.705882%,38.431373%);fill-opacity:1;" d="M 9.539062 0.0234375 L 9.539062 9.34375 L 14.3125 9.34375 C 16.941406 9.34375 19.085938 7.257812 19.085938 4.675781 C 19.085938 2.109375 16.953125 0.0117188 14.3125 0.0117188 L 9.539062 0.0117188 Z M 9.539062 0.0234375 "/>
<path style=" stroke:none;fill-rule:nonzero;fill:rgb(94.901961%,30.588235%,11.764706%);fill-opacity:1;" d="M 0.0078125 4.402344 C 0.0078125 6.96875 2.140625 9.066406 4.78125 9.066406 L 9.554688 9.066406 L 9.554688 -0.265625 L 4.78125 -0.265625 C 2.140625 -0.265625 0.0078125 1.820312 0.0078125 4.402344 Z M 0.0078125 4.402344 "/>
<path style=" stroke:none;fill-rule:nonzero;fill:rgb(63.529412%,34.901961%,100%);fill-opacity:1;" d="M 0.0078125 14.003906 C 0.0078125 16.574219 2.140625 18.667969 4.78125 18.667969 L 9.554688 18.667969 L 9.554688 9.34375 L 4.78125 9.34375 C 2.140625 9.34375 0.0078125 11.4375 0.0078125 14.003906 Z M 0.0078125 14.003906 "/>
</g>
</svg>
