<?xml version="1.0" encoding="UTF-8"?>
<svg xmlns="http://www.w3.org/2000/svg" xmlns:xlink="http://www.w3.org/1999/xlink" width="50px" height="35px" viewBox="0 0 50 35" version="1.1">
<g id="surface1">
<path style=" stroke:none;fill-rule:nonzero;fill:rgb(0%,45.882353%,56.078431%);fill-opacity:1;" d="M 20.570312 22.800781 C 19.816406 26.945312 18.820312 29.957031 17.585938 31.835938 C 16.621094 33.285156 15.566406 34.007812 14.417969 34.007812 C 14.113281 34.007812 13.734375 33.917969 13.289062 33.730469 L 13.289062 32.730469 C 13.507812 32.765625 13.765625 32.78125 14.058594 32.78125 C 14.59375 32.78125 15.027344 32.632812 15.355469 32.332031 C 15.75 31.96875 15.945312 31.558594 15.945312 31.105469 C 15.945312 30.792969 15.792969 30.15625 15.484375 29.195312 L 13.453125 22.800781 L 15.273438 22.800781 L 16.734375 27.582031 C 17.058594 28.667969 17.199219 29.425781 17.144531 29.859375 C 17.941406 27.699219 18.5 25.347656 18.816406 22.800781 L 20.570312 22.800781 M 12.53125 31.070312 L 10.679688 31.070312 C 10.613281 27.90625 10.433594 24.925781 10.136719 22.136719 L 10.121094 22.136719 L 7.300781 31.070312 L 5.890625 31.070312 L 3.085938 22.136719 L 3.066406 22.136719 C 2.859375 24.816406 2.730469 27.792969 2.675781 31.070312 L 0.984375 31.070312 C 1.09375 27.085938 1.367188 23.351562 1.804688 19.863281 L 4.101562 19.863281 L 6.773438 28.097656 L 6.792969 28.097656 L 9.480469 19.863281 L 11.679688 19.863281 C 12.160156 23.945312 12.445312 27.683594 12.53125 31.070312 "/>
<path style=" stroke:none;fill-rule:nonzero;fill:rgb(94.901961%,56.862745%,6.666667%);fill-opacity:1;" d="M 45.238281 31.070312 L 39.972656 31.070312 L 39.972656 19.863281 L 41.746094 19.863281 L 41.746094 29.691406 L 45.238281 29.691406 L 45.238281 31.070312 M 32.003906 28.828125 C 31.554688 28.097656 31.328125 26.925781 31.328125 25.308594 C 31.328125 22.488281 32.175781 21.074219 33.871094 21.074219 C 34.757812 21.074219 35.40625 21.414062 35.824219 22.085938 C 36.273438 22.816406 36.496094 23.980469 36.496094 25.574219 C 36.496094 28.417969 35.648438 29.84375 33.953125 29.84375 C 33.066406 29.84375 32.417969 29.503906 32.003906 28.828125 M 38.597656 31.339844 L 36.5625 30.324219 C 36.742188 30.175781 36.914062 30.011719 37.070312 29.824219 C 37.933594 28.796875 38.367188 27.273438 38.367188 25.257812 C 38.367188 21.550781 36.929688 19.695312 34.050781 19.695312 C 32.640625 19.695312 31.542969 20.167969 30.753906 21.109375 C 29.890625 22.136719 29.460938 23.652344 29.460938 25.65625 C 29.460938 27.628906 29.839844 29.074219 30.605469 29.992188 C 31.304688 30.820312 32.359375 31.238281 33.769531 31.238281 C 34.296875 31.238281 34.78125 31.171875 35.222656 31.039062 L 37.871094 32.601562 L 38.59375 31.339844 M 28.6875 27.964844 C 28.6875 28.914062 28.34375 29.695312 27.65625 30.304688 C 26.96875 30.914062 26.042969 31.21875 24.886719 31.21875 C 23.800781 31.21875 22.753906 30.867188 21.734375 30.171875 L 22.210938 29.207031 C 23.085938 29.652344 23.878906 29.871094 24.589844 29.871094 C 25.257812 29.871094 25.777344 29.722656 26.15625 29.425781 C 26.53125 29.125 26.757812 28.710938 26.757812 28.179688 C 26.757812 27.515625 26.300781 26.945312 25.457031 26.46875 C 24.683594 26.039062 23.128906 25.136719 23.128906 25.136719 C 22.289062 24.515625 21.867188 23.851562 21.867188 22.753906 C 21.867188 21.84375 22.179688 21.109375 22.808594 20.550781 C 23.4375 19.992188 24.25 19.710938 25.246094 19.710938 C 26.273438 19.710938 27.207031 19.992188 28.050781 20.542969 L 27.621094 21.503906 C 26.902344 21.195312 26.191406 21.042969 25.492188 21.042969 C 24.921875 21.042969 24.484375 21.179688 24.179688 21.457031 C 23.871094 21.734375 23.683594 22.085938 23.683594 22.519531 C 23.683594 23.183594 24.152344 23.757812 25.015625 24.246094 C 25.804688 24.675781 27.394531 25.59375 27.394531 25.59375 C 28.257812 26.214844 28.6875 26.875 28.6875 27.964844 "/>
<path style=" stroke:none;fill-rule:nonzero;fill:rgb(94.901961%,56.862745%,6.666667%);fill-opacity:1;" d="M 46.503906 31.070312 L 46.796875 31.070312 L 46.796875 29.929688 L 47.179688 29.929688 L 47.179688 29.695312 L 46.105469 29.695312 L 46.105469 29.929688 L 46.503906 29.929688 Z M 48.738281 31.070312 L 49.011719 31.070312 L 49.011719 29.695312 L 48.597656 29.695312 L 48.257812 30.632812 L 47.890625 29.695312 L 47.488281 29.695312 L 47.488281 31.070312 L 47.75 31.070312 L 47.75 30.023438 L 47.765625 30.023438 L 48.152344 31.070312 L 48.351562 31.070312 L 48.738281 30.023438 L 48.738281 31.070312 "/>
<path style=" stroke:none;fill-rule:nonzero;fill:rgb(0%,45.882353%,56.078431%);fill-opacity:1;" d="M 30.515625 0.992188 C 30.046875 0.984375 29.640625 1.164062 29.429688 1.683594 C 29.066406 2.566406 29.964844 3.433594 30.273438 3.878906 C 30.5 4.191406 30.792969 4.542969 30.953125 4.894531 C 31.046875 5.125 31.074219 5.371094 31.167969 5.613281 C 31.382812 6.207031 31.582031 6.871094 31.863281 7.425781 C 32.011719 7.710938 32.171875 8.011719 32.359375 8.265625 C 32.46875 8.417969 32.652344 8.484375 32.695312 8.726562 C 32.507812 9 32.492188 9.40625 32.386719 9.742188 C 31.902344 11.273438 32.089844 13.167969 32.773438 14.292969 C 32.988281 14.632812 33.496094 15.375 34.179688 15.089844 C 34.78125 14.847656 34.648438 14.078125 34.820312 13.398438 C 34.859375 13.234375 34.832031 13.128906 34.914062 13.019531 L 34.914062 13.046875 C 35.101562 13.425781 35.289062 13.792969 35.460938 14.171875 C 35.878906 14.835938 36.601562 15.527344 37.203125 15.984375 C 37.523438 16.230469 37.777344 16.648438 38.179688 16.800781 L 38.179688 16.757812 L 38.152344 16.757812 C 38.070312 16.636719 37.953125 16.582031 37.84375 16.488281 C 37.601562 16.242188 37.335938 15.945312 37.148438 15.675781 C 36.585938 14.917969 36.089844 14.078125 35.652344 13.210938 C 35.4375 12.789062 35.25 12.328125 35.074219 11.910156 C 34.996094 11.746094 34.996094 11.503906 34.859375 11.421875 C 34.660156 11.71875 34.367188 11.976562 34.21875 12.34375 C 33.964844 12.925781 33.9375 13.644531 33.84375 14.386719 C 33.789062 14.402344 33.816406 14.386719 33.789062 14.414062 C 33.363281 14.304688 33.214844 13.859375 33.054688 13.480469 C 32.652344 12.519531 32.585938 10.976562 32.933594 9.863281 C 33.027344 9.582031 33.429688 8.6875 33.269531 8.417969 C 33.1875 8.15625 32.921875 8.011719 32.773438 7.804688 C 32.601562 7.550781 32.410156 7.222656 32.292969 6.9375 C 31.972656 6.179688 31.808594 5.339844 31.464844 4.582031 C 31.300781 4.230469 31.019531 3.863281 30.792969 3.539062 C 30.539062 3.175781 30.257812 2.917969 30.058594 2.484375 C 29.992188 2.335938 29.898438 2.089844 30.003906 1.929688 C 30.03125 1.820312 30.085938 1.78125 30.191406 1.753906 C 30.367188 1.605469 30.859375 1.792969 31.035156 1.875 C 31.53125 2.078125 31.945312 2.269531 32.359375 2.550781 C 32.546875 2.6875 32.746094 2.945312 32.988281 3.011719 L 33.269531 3.011719 C 33.695312 3.105469 34.179688 3.039062 34.582031 3.160156 C 35.289062 3.390625 35.929688 3.730469 36.507812 4.097656 C 38.257812 5.21875 39.703125 6.820312 40.679688 8.726562 C 40.839844 9.039062 40.90625 9.324219 41.054688 9.648438 C 41.335938 10.3125 41.683594 10.988281 41.964844 11.640625 C 42.246094 12.277344 42.511719 12.925781 42.914062 13.453125 C 43.117188 13.738281 43.917969 13.886719 44.28125 14.035156 C 44.546875 14.15625 44.960938 14.265625 45.203125 14.414062 C 45.65625 14.699219 46.113281 15.023438 46.539062 15.335938 C 46.753906 15.5 47.421875 15.835938 47.464844 16.109375 C 46.394531 16.082031 45.5625 16.1875 44.867188 16.488281 C 44.667969 16.570312 44.347656 16.570312 44.320312 16.824219 C 44.425781 16.933594 44.441406 17.109375 44.535156 17.261719 C 44.695312 17.53125 44.972656 17.894531 45.230469 18.085938 C 45.511719 18.300781 45.792969 18.519531 46.085938 18.707031 C 46.605469 19.035156 47.195312 19.222656 47.703125 19.546875 C 48 19.738281 48.292969 19.980469 48.585938 20.183594 C 48.734375 20.292969 48.828125 20.46875 49.015625 20.535156 L 49.015625 20.496094 C 48.921875 20.375 48.894531 20.199219 48.800781 20.0625 C 48.667969 19.925781 48.535156 19.804688 48.398438 19.667969 C 48.011719 19.140625 47.53125 18.683594 47.007812 18.300781 C 46.582031 18.003906 45.644531 17.597656 45.46875 17.097656 C 45.46875 17.097656 45.457031 17.082031 45.441406 17.070312 C 45.738281 17.042969 46.085938 16.933594 46.367188 16.851562 C 46.820312 16.730469 47.234375 16.757812 47.703125 16.636719 C 47.917969 16.582031 48.132812 16.515625 48.347656 16.445312 L 48.347656 16.324219 C 48.105469 16.082031 47.933594 15.753906 47.679688 15.527344 C 46.996094 14.929688 46.246094 14.347656 45.46875 13.859375 C 45.054688 13.589844 44.519531 13.414062 44.078125 13.183594 C 43.917969 13.101562 43.652344 13.0625 43.558594 12.925781 C 43.316406 12.628906 43.179688 12.234375 43.007812 11.882812 C 42.621094 11.136719 42.246094 10.3125 41.910156 9.527344 C 41.671875 9 41.523438 8.46875 41.230469 7.984375 C 39.851562 5.679688 38.351562 4.285156 36.050781 2.917969 C 35.554688 2.632812 34.96875 2.511719 34.339844 2.363281 C 34.003906 2.347656 33.671875 2.320312 33.335938 2.308594 C 33.121094 2.214844 32.90625 1.957031 32.71875 1.832031 C 32.242188 1.527344 31.296875 1.003906 30.515625 0.992188 Z M 33.816406 4.339844 C 33.589844 4.339844 33.429688 4.367188 33.269531 4.40625 L 33.269531 4.433594 L 33.292969 4.433594 C 33.402344 4.648438 33.589844 4.800781 33.722656 4.988281 C 33.832031 5.207031 33.925781 5.421875 34.03125 5.636719 C 34.042969 5.625 34.058594 5.609375 34.058594 5.609375 C 34.246094 5.476562 34.339844 5.261719 34.339844 4.933594 C 34.257812 4.839844 34.246094 4.746094 34.179688 4.648438 C 34.097656 4.515625 33.925781 4.445312 33.816406 4.339844 Z M 33.816406 4.339844 "/>
</g>
</svg>
