<?xml version="1.0" encoding="UTF-8"?>
<svg xmlns="http://www.w3.org/2000/svg" xmlns:xlink="http://www.w3.org/1999/xlink" width="50px" height="29px" viewBox="0 0 50 29" version="1.1">
<g id="surface1">
<path style=" stroke:none;fill-rule:nonzero;fill:rgb(80%,80%,80%);fill-opacity:1;" d="M 36.902344 0.503906 L 36.878906 0.449219 C 36.867188 0.4375 36.851562 0.421875 36.824219 0.421875 L 36.769531 0.433594 C 36.742188 0.460938 36.734375 0.472656 36.734375 0.5 L 35.636719 20.648438 L 35.800781 20.621094 L 36.859375 1.019531 L 38.128906 3.132812 L 38.117188 3.132812 C 39.074219 5.988281 39.476562 9.023438 39.320312 12.246094 L 39.402344 12.363281 L 40.652344 14.613281 L 40.726562 14.695312 C 42.652344 16.40625 44.808594 17.5625 47.199219 18.152344 L 47.78125 19.109375 L 47.859375 19.132812 L 47.871094 19.109375 L 36.878906 0.882812 L 36.902344 0.503906 "/>
<path style=" stroke:none;fill-rule:nonzero;fill:rgb(80%,80%,80%);fill-opacity:1;" d="M 36.511719 7.617188 C 37.871094 10.429688 38.359375 14.683594 38 20.382812 L 43.285156 19.726562 Z M 48.554688 19.992188 C 49.097656 19.925781 49.449219 19.808594 49.605469 19.640625 L 21.960938 23.054688 L 21.953125 23.054688 C 21.960938 24.21875 22.480469 25.136719 23.488281 25.792969 C 23.757812 25.984375 24.042969 26.132812 24.300781 26.226562 C 24.546875 25.9375 24.816406 25.726562 25.140625 25.53125 L 25.148438 25.53125 C 28.042969 23.746094 32.347656 23.476562 38.027344 24.691406 L 38.089844 24.703125 C 38.710938 24.832031 39.332031 24.988281 39.914062 25.171875 C 40.082031 25.199219 40.222656 25.144531 40.34375 25.042969 C 40.550781 24.886719 40.808594 24.765625 41.15625 24.691406 L 41.15625 24.679688 C 42.074219 23.03125 43.308594 21.8125 44.859375 21.015625 C 45.929688 20.472656 47.171875 20.121094 48.554688 19.992188 M 35.273438 20.5 L 36.539062 0.835938 C 34.707031 8.011719 31.757812 14.71875 27.714844 20.933594 L 35.273438 20.5 M 28.15625 4.65625 L 28.101562 4.628906 L 28.046875 4.640625 L 28.019531 4.703125 L 26.972656 21.726562 L 27.128906 21.714844 L 28.183594 4.710938 L 28.15625 4.65625 M 26.683594 21.363281 L 27.796875 4.757812 L 21.945312 21.871094 L 26.683594 21.363281 "/>
<path style="fill:none;stroke-width:12;stroke-linecap:round;stroke-linejoin:round;stroke:rgb(80%,80%,80%);stroke-opacity:1;stroke-miterlimit:4;" d="M 503.366016 496.229795 C 476.119531 509.201239 456.323828 511.43521 443.686719 503.364089 C 431.122656 494.932651 411.765234 496.878367 385.6875 509.201239 M 567.428125 498.103448 C 562.314844 496.373922 556.836328 495.220905 550.992578 494.71646 C 539.232031 493.70757 524.914844 498.319639 508.187109 508.192349 C 491.532422 518.28125 471.517578 522.172683 447.63125 520.010776 M 716.370703 473.529768 C 601.394922 449.820851 518.632812 455.369747 467.792187 490.392645 M 788.90625 484.915814 C 783.792969 482.970097 778.314453 481.81708 772.470703 481.528825 C 760.710156 480.519935 746.392969 485.132004 729.665234 495.004714 C 713.010547 504.877425 692.995703 508.768858 669.109375 506.823141 " transform="matrix(0.0534759,0,0,0.0542056,0,0)"/>
<path style="fill:none;stroke-width:29;stroke-linecap:round;stroke-linejoin:round;stroke:rgb(80%,80%,80%);stroke-opacity:1;stroke-miterlimit:4;" d="M 634.485156 88.782328 C 622.724609 81.57597 610.306641 83.521686 597.523438 94.835668 C 586.420313 83.377559 574.805859 81.503906 562.680078 88.782328 M 607.676953 48.210533 C 595.624219 41.004176 583.790625 43.886719 571.664844 56.930226 C 559.904297 43.886719 547.778516 41.004176 535.725781 48.210533 " transform="matrix(0.0534759,0,0,0.0542056,0,0)"/>
<path style=" stroke:none;fill-rule:nonzero;fill:rgb(42.352941%,47.058824%,68.627451%);fill-opacity:1;" d="M 0.953125 23.113281 L 2.664062 23.113281 C 3.175781 23.113281 3.554688 23.257812 3.796875 23.558594 C 4.039062 23.855469 4.117188 24.269531 4.03125 24.800781 C 4 25.015625 3.9375 25.214844 3.84375 25.402344 C 3.753906 25.585938 3.636719 25.746094 3.492188 25.898438 C 3.316406 26.078125 3.121094 26.207031 2.910156 26.289062 C 2.695312 26.367188 2.417969 26.410156 2.082031 26.410156 L 1.320312 26.410156 L 1.132812 27.601562 L 0.242188 27.601562 Z M 1.734375 23.824219 L 1.433594 25.703125 L 1.972656 25.703125 C 2.332031 25.703125 2.597656 25.628906 2.769531 25.480469 C 2.941406 25.335938 3.058594 25.085938 3.113281 24.738281 C 3.164062 24.402344 3.132812 24.171875 3.019531 24.03125 C 2.902344 23.894531 2.679688 23.824219 2.34375 23.824219 L 1.734375 23.824219 M 5.03125 21.925781 L 5.914062 21.925781 L 5.726562 23.117188 L 6.511719 23.117188 C 7.011719 23.117188 7.351562 23.214844 7.539062 23.40625 C 7.734375 23.59375 7.792969 23.90625 7.726562 24.328125 L 7.394531 26.414062 L 6.496094 26.414062 L 6.8125 24.429688 C 6.851562 24.203125 6.828125 24.050781 6.757812 23.96875 C 6.691406 23.886719 6.539062 23.84375 6.316406 23.84375 L 5.609375 23.84375 L 5.199219 26.414062 L 4.320312 26.414062 L 5.03125 21.925781 M 8.691406 23.113281 L 10.402344 23.113281 C 10.914062 23.113281 11.292969 23.257812 11.535156 23.558594 C 11.777344 23.855469 11.855469 24.269531 11.769531 24.800781 C 11.738281 25.015625 11.671875 25.214844 11.582031 25.402344 C 11.492188 25.585938 11.375 25.746094 11.230469 25.898438 C 11.054688 26.078125 10.859375 26.207031 10.648438 26.289062 C 10.433594 26.367188 10.15625 26.410156 9.816406 26.410156 L 9.054688 26.410156 L 8.867188 27.601562 L 7.972656 27.601562 Z M 9.46875 23.824219 L 9.171875 25.703125 L 9.710938 25.703125 C 10.070312 25.703125 10.335938 25.628906 10.507812 25.480469 C 10.679688 25.335938 10.796875 25.085938 10.851562 24.738281 C 10.902344 24.402344 10.871094 24.171875 10.757812 24.03125 C 10.640625 23.894531 10.417969 23.824219 10.082031 23.824219 L 9.46875 23.824219 "/>
<path style=" stroke:none;fill-rule:nonzero;fill:rgb(97.254902%,61.176471%,5.490196%);fill-opacity:1;" d="M 13.277344 20.972656 L 14.988281 20.972656 L 15.742188 25.140625 L 17.824219 20.972656 L 19.53125 20.972656 L 18.664062 26.402344 L 17.519531 26.402344 L 18.289062 22.175781 L 16.191406 26.402344 L 14.953125 26.402344 L 14.164062 22.132812 L 13.597656 26.402344 L 12.410156 26.402344 L 13.277344 20.972656 M 21.582031 25.527344 L 22.449219 25.527344 L 22.945312 22.414062 L 24.019531 22.414062 L 23.402344 26.296875 C 23.316406 26.820312 23.128906 27.210938 22.839844 27.464844 C 22.546875 27.722656 22.144531 27.84375 21.625 27.84375 L 19.519531 27.84375 L 19.648438 27.039062 L 21.570312 27.039062 C 21.78125 27.039062 21.945312 26.988281 22.070312 26.890625 C 22.199219 26.792969 22.273438 26.652344 22.304688 26.46875 L 22.316406 26.402344 L 21.363281 26.402344 C 20.753906 26.402344 20.34375 26.285156 20.117188 26.050781 C 19.898438 25.816406 19.828125 25.421875 19.914062 24.875 L 20.304688 22.417969 L 21.367188 22.417969 L 20.988281 24.792969 C 20.941406 25.089844 20.957031 25.292969 21.03125 25.382812 C 21.105469 25.476562 21.292969 25.527344 21.582031 25.527344 M 26.914062 20.972656 L 28.148438 20.972656 L 29.648438 26.402344 L 28.347656 26.402344 L 28.042969 25.113281 L 25.632812 25.113281 L 24.929688 26.402344 L 23.695312 26.402344 Z M 27.316406 22.050781 L 26.171875 24.144531 L 27.824219 24.144531 L 27.316406 22.050781 M 33.707031 26.402344 L 31.640625 26.402344 C 31.015625 26.402344 30.5625 26.226562 30.265625 25.863281 C 29.972656 25.503906 29.882812 25 29.984375 24.359375 C 30.027344 24.09375 30.101562 23.855469 30.207031 23.632812 C 30.316406 23.410156 30.460938 23.210938 30.636719 23.03125 C 30.84375 22.816406 31.085938 22.65625 31.347656 22.558594 C 31.609375 22.460938 31.945312 22.417969 32.347656 22.417969 L 33.265625 22.417969 L 33.496094 20.976562 L 34.566406 20.976562 Z M 32.769531 25.546875 L 33.132812 23.277344 L 32.480469 23.277344 C 32.042969 23.277344 31.722656 23.363281 31.507812 23.542969 C 31.300781 23.71875 31.160156 24.019531 31.089844 24.4375 C 31.027344 24.84375 31.0625 25.125 31.203125 25.296875 C 31.34375 25.464844 31.621094 25.550781 32.027344 25.550781 L 32.769531 25.550781 M 35.273438 22.414062 L 39.402344 22.414062 C 40 22.414062 40.410156 22.527344 40.640625 22.753906 C 40.871094 22.984375 40.941406 23.355469 40.859375 23.871094 L 40.460938 26.398438 L 39.375 26.398438 L 39.753906 24.007812 C 39.800781 23.714844 39.785156 23.519531 39.710938 23.425781 C 39.636719 23.335938 39.453125 23.285156 39.175781 23.285156 L 38.570312 23.285156 L 38.074219 26.398438 L 36.972656 26.398438 L 37.46875 23.285156 L 36.214844 23.285156 L 35.714844 26.398438 L 34.632812 26.398438 L 35.273438 22.414062 M 43.25 21.957031 L 42.121094 21.957031 L 42.277344 20.972656 L 43.40625 20.972656 Z M 42.546875 26.402344 L 41.417969 26.402344 L 42.054688 22.414062 L 43.183594 22.414062 L 42.546875 26.402344 M 44.105469 22.414062 L 46.128906 22.414062 C 46.738281 22.414062 47.160156 22.527344 47.386719 22.75 C 47.609375 22.976562 47.683594 23.347656 47.597656 23.871094 L 47.199219 26.398438 L 46.121094 26.398438 L 46.507812 23.996094 C 46.554688 23.699219 46.539062 23.503906 46.460938 23.417969 C 46.378906 23.332031 46.199219 23.28125 45.914062 23.28125 L 45.046875 23.28125 L 44.550781 26.394531 L 43.476562 26.394531 L 44.105469 22.414062 "/>
</g>
</svg>
