<?xml version="1.0" encoding="UTF-8"?>
<svg xmlns="http://www.w3.org/2000/svg" xmlns:xlink="http://www.w3.org/1999/xlink" width="20px" height="18px" viewBox="0 0 20 18" version="1.1">
<g id="surface1">
<path style=" stroke:none;fill-rule:nonzero;fill:rgb(100%,100%,100%);fill-opacity:1;" d="M 0.0585938 8.980469 C 0.0585938 10.484375 1.523438 11.886719 3.835938 12.679688 C 3.375 15.007812 3.753906 16.882812 5.019531 17.613281 C 6.316406 18.363281 8.253906 17.84375 10.09375 16.234375 C 11.886719 17.78125 13.699219 18.386719 14.960938 17.65625 C 16.261719 16.902344 16.65625 14.898438 16.183594 12.5 C 18.589844 11.699219 19.933594 10.503906 19.933594 8.980469 C 19.933594 7.511719 18.46875 6.242188 16.1875 5.453125 C 16.699219 2.957031 16.265625 1.125 14.949219 0.363281 C 13.675781 -0.371094 11.84375 0.269531 10.027344 1.855469 C 8.132812 0.171875 6.320312 -0.339844 5.003906 0.421875 C 3.734375 1.15625 3.371094 3.066406 3.835938 5.4375 C 1.601562 6.21875 0.0585938 7.515625 0.0585938 8.980469 Z M 0.0585938 8.980469 "/>
<path style=" stroke:none;fill-rule:nonzero;fill:rgb(32.54902%,75.686275%,87.058824%);fill-opacity:1;" d="M 15.703125 6.234375 C 15.515625 6.171875 15.328125 6.109375 15.136719 6.054688 C 15.167969 5.925781 15.195312 5.796875 15.222656 5.667969 C 15.652344 3.574219 15.371094 1.890625 14.414062 1.335938 C 13.492188 0.804688 11.984375 1.359375 10.464844 2.683594 C 10.316406 2.816406 10.167969 2.949219 10.023438 3.089844 C 9.929688 2.996094 9.832031 2.90625 9.734375 2.816406 C 8.136719 1.398438 6.539062 0.804688 5.582031 1.359375 C 4.660156 1.894531 4.390625 3.476562 4.777344 5.460938 C 4.816406 5.65625 4.859375 5.851562 4.90625 6.046875 C 4.679688 6.109375 4.460938 6.179688 4.253906 6.25 C 2.382812 6.902344 1.191406 7.925781 1.191406 8.988281 C 1.191406 10.082031 2.472656 11.183594 4.417969 11.847656 C 4.578125 11.902344 4.734375 11.953125 4.894531 12 C 4.84375 12.207031 4.796875 12.417969 4.757812 12.628906 C 4.386719 14.578125 4.675781 16.125 5.59375 16.65625 C 6.542969 17.203125 8.132812 16.640625 9.679688 15.285156 C 9.804688 15.175781 9.925781 15.0625 10.050781 14.941406 C 10.203125 15.09375 10.363281 15.238281 10.527344 15.378906 C 12.027344 16.671875 13.507812 17.195312 14.425781 16.664062 C 15.371094 16.113281 15.679688 14.453125 15.28125 12.429688 C 15.25 12.277344 15.214844 12.117188 15.175781 11.957031 C 15.285156 11.925781 15.394531 11.890625 15.503906 11.855469 C 17.527344 11.183594 18.84375 10.097656 18.84375 8.988281 C 18.84375 7.921875 17.609375 6.894531 15.703125 6.234375 Z M 15.703125 6.234375 "/>
<path style=" stroke:none;fill-rule:nonzero;fill:rgb(100%,100%,100%);fill-opacity:1;" d="M 15.265625 11.140625 C 15.167969 11.171875 15.070312 11.203125 14.96875 11.230469 C 14.746094 10.523438 14.445312 9.769531 14.074219 8.992188 C 14.425781 8.230469 14.71875 7.488281 14.933594 6.785156 C 15.113281 6.835938 15.289062 6.890625 15.457031 6.949219 C 17.09375 7.511719 18.089844 8.347656 18.089844 8.988281 C 18.089844 9.671875 17.011719 10.558594 15.265625 11.140625 Z M 14.539062 12.578125 C 14.71875 13.472656 14.742188 14.28125 14.625 14.910156 C 14.519531 15.480469 14.308594 15.859375 14.046875 16.007812 C 13.492188 16.332031 12.300781 15.914062 11.019531 14.808594 C 10.871094 14.679688 10.722656 14.542969 10.574219 14.402344 C 11.070312 13.855469 11.570312 13.222656 12.054688 12.519531 C 12.90625 12.445312 13.714844 12.320312 14.445312 12.148438 C 14.480469 12.296875 14.511719 12.4375 14.539062 12.578125 Z M 7.207031 15.953125 C 6.664062 16.144531 6.230469 16.152344 5.972656 16 C 5.414062 15.679688 5.183594 14.4375 5.5 12.769531 C 5.535156 12.574219 5.578125 12.378906 5.628906 12.183594 C 6.351562 12.34375 7.152344 12.460938 8.007812 12.527344 C 8.496094 13.21875 9.003906 13.851562 9.519531 14.40625 C 9.410156 14.511719 9.300781 14.613281 9.183594 14.714844 C 8.5 15.3125 7.8125 15.738281 7.207031 15.953125 Z M 4.664062 11.132812 C 3.800781 10.839844 3.089844 10.457031 2.605469 10.039062 C 2.164062 9.664062 1.945312 9.289062 1.945312 8.988281 C 1.945312 8.34375 2.902344 7.523438 4.5 6.964844 C 4.703125 6.894531 4.90625 6.832031 5.109375 6.773438 C 5.328125 7.492188 5.621094 8.246094 5.96875 9.007812 C 5.613281 9.777344 5.320312 10.542969 5.097656 11.269531 C 4.953125 11.230469 4.808594 11.183594 4.664062 11.132812 Z M 5.515625 5.3125 C 5.183594 3.617188 5.40625 2.335938 5.960938 2.011719 C 6.550781 1.671875 7.855469 2.160156 9.230469 3.382812 C 9.320312 3.460938 9.40625 3.542969 9.496094 3.628906 C 8.984375 4.179688 8.476562 4.808594 7.992188 5.492188 C 7.164062 5.570312 6.367188 5.691406 5.636719 5.859375 C 5.59375 5.679688 5.550781 5.496094 5.515625 5.3125 Z M 13.128906 7.199219 C 12.957031 6.898438 12.777344 6.605469 12.59375 6.3125 C 13.15625 6.382812 13.695312 6.480469 14.203125 6.59375 C 14.050781 7.082031 13.863281 7.59375 13.636719 8.117188 C 13.476562 7.808594 13.304688 7.5 13.128906 7.199219 Z M 10.023438 4.167969 C 10.375 4.546875 10.722656 4.96875 11.0625 5.425781 C 10.367188 5.390625 9.671875 5.390625 8.976562 5.421875 C 9.320312 4.96875 9.671875 4.550781 10.023438 4.167969 Z M 6.898438 7.203125 C 6.726562 7.503906 6.5625 7.808594 6.402344 8.117188 C 6.183594 7.59375 5.996094 7.082031 5.839844 6.585938 C 6.34375 6.472656 6.882812 6.382812 7.441406 6.3125 C 7.253906 6.605469 7.074219 6.902344 6.898438 7.203125 Z M 7.457031 11.71875 C 6.878906 11.652344 6.335938 11.566406 5.832031 11.457031 C 5.988281 10.949219 6.179688 10.425781 6.402344 9.894531 C 6.5625 10.203125 6.730469 10.507812 6.902344 10.808594 C 7.082031 11.117188 7.265625 11.417969 7.457031 11.71875 Z M 10.046875 13.859375 C 9.6875 13.472656 9.332031 13.046875 8.984375 12.585938 C 9.320312 12.601562 9.667969 12.609375 10.015625 12.609375 C 10.375 12.609375 10.730469 12.597656 11.082031 12.582031 C 10.738281 13.050781 10.390625 13.480469 10.046875 13.859375 Z M 13.644531 9.867188 C 13.882812 10.40625 14.082031 10.925781 14.238281 11.421875 C 13.726562 11.539062 13.171875 11.632812 12.589844 11.703125 C 12.777344 11.40625 12.957031 11.105469 13.132812 10.804688 C 13.3125 10.496094 13.480469 10.183594 13.644531 9.867188 Z M 12.480469 10.425781 C 12.210938 10.890625 11.929688 11.347656 11.632812 11.796875 C 11.109375 11.832031 10.570312 11.851562 10.015625 11.851562 C 9.46875 11.851562 8.933594 11.835938 8.417969 11.800781 C 8.113281 11.355469 7.824219 10.898438 7.554688 10.429688 C 7.285156 9.964844 7.035156 9.488281 6.804688 9.003906 C 7.035156 8.519531 7.285156 8.046875 7.554688 7.582031 C 7.820312 7.113281 8.105469 6.660156 8.410156 6.214844 C 8.933594 6.175781 9.472656 6.15625 10.015625 6.15625 C 10.5625 6.15625 11.101562 6.175781 11.628906 6.214844 C 11.925781 6.660156 12.210938 7.113281 12.476562 7.578125 C 12.746094 8.039062 13 8.515625 13.238281 8.996094 C 13.003906 9.480469 12.75 9.957031 12.480469 10.425781 Z M 14.035156 1.992188 C 14.625 2.332031 14.855469 3.710938 14.484375 5.515625 C 14.460938 5.632812 14.433594 5.75 14.40625 5.867188 C 13.671875 5.699219 12.878906 5.570312 12.046875 5.492188 C 11.5625 4.800781 11.058594 4.171875 10.554688 3.628906 C 10.6875 3.5 10.820312 3.375 10.960938 3.253906 C 12.261719 2.117188 13.480469 1.671875 14.035156 1.992188 Z M 14.035156 1.992188 "/>
<path style=" stroke:none;fill-rule:nonzero;fill:rgb(32.54902%,75.686275%,87.058824%);fill-opacity:1;" d="M 10.015625 7.410156 C 10.886719 7.410156 11.59375 8.117188 11.59375 8.988281 C 11.59375 9.859375 10.886719 10.566406 10.015625 10.566406 C 9.144531 10.566406 8.441406 9.859375 8.441406 8.988281 C 8.441406 8.117188 9.144531 7.410156 10.015625 7.410156 "/>
</g>
</svg>
