<?xml version="1.0" encoding="UTF-8"?>
<svg xmlns="http://www.w3.org/2000/svg" xmlns:xlink="http://www.w3.org/1999/xlink" width="30px" height="30px" viewBox="0 0 30 30" version="1.1">
<g id="surface1">
<path style=" stroke:none;fill-rule:nonzero;fill:rgb(10.196078%,9.019608%,10.588235%);fill-opacity:1;" d="M 30 15.035156 C 30 23.289062 23.285156 29.976562 15 29.976562 C 6.714844 29.976562 0 23.289062 0 15.035156 C 0 6.785156 6.714844 0.0976562 15 0.0976562 C 23.285156 0.0976562 30 6.785156 30 15.035156 Z M 30 15.035156 "/>
<path style=" stroke:none;fill-rule:nonzero;fill:rgb(100%,100%,100%);fill-opacity:1;" d="M 21.527344 5.617188 C 20.007812 5.667969 18.679688 6.503906 17.6875 7.660156 C 16.59375 8.925781 15.867188 10.429688 15.339844 11.964844 C 14.402344 11.199219 13.679688 10.207031 12.171875 9.773438 C 11.007812 9.441406 9.785156 9.578125 8.660156 10.414062 C 8.128906 10.808594 7.761719 11.40625 7.585938 11.972656 C 7.136719 13.433594 8.0625 14.734375 8.484375 15.203125 L 9.402344 16.1875 C 9.59375 16.378906 10.050781 16.882812 9.828125 17.601562 C 9.585938 18.386719 8.636719 18.890625 7.664062 18.59375 C 7.230469 18.460938 6.605469 18.140625 6.746094 17.683594 C 6.804688 17.5 6.9375 17.359375 7.007812 17.199219 C 7.074219 17.0625 7.105469 16.960938 7.125 16.898438 C 7.304688 16.320312 7.0625 15.570312 6.441406 15.378906 C 5.859375 15.199219 5.265625 15.339844 5.039062 16.085938 C 4.777344 16.929688 5.183594 18.460938 7.355469 19.128906 C 9.902344 19.910156 12.054688 18.527344 12.363281 16.726562 C 12.554688 15.597656 12.042969 14.761719 11.105469 13.683594 L 10.34375 12.839844 C 9.878906 12.382812 9.722656 11.597656 10.199219 10.996094 C 10.601562 10.484375 11.179688 10.269531 12.121094 10.523438 C 13.496094 10.894531 14.109375 11.847656 15.132812 12.613281 C 14.707031 13.992188 14.433594 15.375 14.183594 16.617188 L 14.03125 17.542969 C 13.300781 21.363281 12.742188 23.460938 11.292969 24.664062 C 11 24.871094 10.582031 25.179688 9.953125 25.203125 C 9.621094 25.210938 9.515625 24.988281 9.511719 24.886719 C 9.503906 24.65625 9.699219 24.550781 9.828125 24.449219 C 10.023438 24.34375 10.316406 24.167969 10.296875 23.609375 C 10.273438 22.949219 9.722656 22.375 8.929688 22.402344 C 8.335938 22.421875 7.425781 22.980469 7.460938 24 C 7.496094 25.054688 8.484375 25.847656 9.972656 25.796875 C 10.769531 25.769531 12.542969 25.445312 14.296875 23.371094 C 16.332031 20.996094 16.902344 18.269531 17.332031 16.277344 L 17.8125 13.644531 C 18.078125 13.675781 18.363281 13.699219 18.671875 13.703125 C 21.210938 13.757812 22.480469 12.449219 22.496094 11.496094 C 22.511719 10.917969 22.117188 10.351562 21.570312 10.363281 C 21.175781 10.375 20.679688 10.636719 20.5625 11.179688 C 20.445312 11.710938 21.371094 12.1875 20.648438 12.65625 C 20.136719 12.984375 19.214844 13.21875 17.921875 13.027344 L 18.15625 11.734375 C 18.636719 9.277344 19.230469 6.253906 21.480469 6.179688 C 21.640625 6.171875 22.242188 6.1875 22.257812 6.582031 C 22.261719 6.714844 22.226562 6.746094 22.070312 7.050781 C 21.914062 7.285156 21.855469 7.484375 21.863281 7.714844 C 21.882812 8.34375 22.363281 8.753906 23.054688 8.730469 C 23.984375 8.699219 24.25 7.800781 24.234375 7.339844 C 24.199219 6.253906 23.046875 5.566406 21.527344 5.617188 Z M 21.527344 5.617188 "/>
</g>
</svg>
